<svg xmlns="http://www.w3.org/2000/svg" viewBox="0 0 225.13 258.49"><path fill="#020100" d="M56 226.1L0 193.7V64.2l21-12.1L43 39a14.53 14.53 0 0 1 3.7-2.1c1.5-.7 15.9-8.8 32-18.1L110.3.7c2-1.1 5.4.6 35.5 17.9l34.7 20c.8.5 11 6.4 22.7 13.1L224.4 64l.3 37-.2 65.1-.5 28-111.9 64.4c-.1-.1-25.3-14.6-56.1-32.4z"/><path d="M56 226.1L0 193.7V64.2l21-12.1L43 39a14.53 14.53 0 0 1 3.7-2.1c1.5-.7 15.9-8.8 32-18.1L110.3.7c2-1.1 5.4.6 35.5 17.9l34.7 20c.8.5 11 6.4 22.7 13.1L224.4 64l.3 37-.2 65.1-.5 28-111.9 64.4c-.1-.1-25.3-14.6-56.1-32.4zm64.7-35.4a29.27 29.27 0 0 0 6.5-5.7l2.1-2.9h-12.7a152 152 0 0 1-17-.8l-4.4-.8 2.5 3.3c3.6 4.8 11.4 9.8 15.2 9.8 1.8 0 5.2-1.3 7.8-2.9zm11.1-34.1c3.9-1.2 3.8-.8 2.3-8.2-.6-2.5-.7-2.6-4.3-1.5-5 1.4-25.5 1.3-31.7-.2-2.7-.6-5-1-5.2-.8a20.44 20.44 0 0 0-1 4.9l-.6 4.6 5.3 1.1 7.4 1.5c3.6.8 23.9-.2 27.8-1.4zm-68.7-6.4c7.7-2 10.2-3.7 22.2-15.1 7.9-7.6 11.4-10.3 11.8-9.2 1.2 3.3 29.4 2.9 31.5-.4.6-1 1.4-.6 3 1.5 1.2 1.5 6.9 6.8 12.6 11.7 13.2 11.3 16.3 12.4 35.3 12.4 9.5 0 14.5-.4 17-1.4 13.5-5.6 18.6-14.7 12.4-22-6-7.1-17.6-11.6-52.7-20.1-24-5.8-25.5-6.3-27.1-9a9.37 9.37 0 0 1-1-6.7 18.05 18.05 0 0 0-5.2-15.5l-3.5-3.6 1.9-6.9 1.9-6.8 6-.5c7.7-.6 9.4-2 2.5-2-7.9 0-9.3 1-13.1 8.9-4.6 9.4-6 9.4-10.8-.3-4-8.2-4.6-8.6-13.3-8.6-3.9 0-5.1.3-4 1 .8.5 3.9 1 6.8 1 5.9 0 5.8-.1 8.2 9.7 1.3 5.2 1.3 5.3-1.3 7.3a16.86 16.86 0 0 0-5.8 16.2 8.07 8.07 0 0 1-1.2 6.5c-1.8 3.1-2.4 3.3-23 8.3-26.5 6.4-36.2 9.3-45.7 13.6-8.4 3.9-13.6 8.4-14.5 12.4-1.8 8 7.9 16.6 21.5 19.1 5.7 1 21.2.2 27.6-1.5z"/><path d="M112.1 258.5L56 226.1 0 193.7V64.2l21-12.1L43 39a14.53 14.53 0 0 1 3.7-2.1c1.5-.7 15.9-8.8 32-18.1L110.3.7c2-1.1 5.4.6 35.5 17.9l34.7 20c.8.5 11 6.4 22.7 13.1L224.4 64l.3 37-.2 65.1-.5 28-55.9 32.2M120 191.7c3.5-2.1 8.2-6.7 9.6-9.3.9-1.7.6-1.8-3.3-1.3l-6.4 1c-1.2.2-6.9 0-12.9-.5s-11.1-.8-11.3-.5c-.9.9 5.3 7.7 9.2 10 5 3 10.9 3.2 15.1.6zm9.9-34.3l5.8-1.1-.5-5c-.4-2.7-.8-5.2-1.1-5.4s-2.8 0-5.6.6c-7 1.5-23.3 1.4-30.2-.3-6.4-1.5-6-1.8-7.2 5.6-.7 3.7-.6 3.7 3.5 4.8 10.9 3 22.4 3.2 35.3.8zm-63.3-7.7c3.9-1.5 8.4-4.7 15.5-11 5.4-4.8 10.7-9.7 11.7-10.8 1.7-2 2-2 4.9-.6 2.4 1.2 5.7 1.5 15.9 1.1 7.6-.3 13.4-.9 14.1-1.6s3.7 1.3 10.7 8a156.86 156.86 0 0 0 13.3 11.5c6 4 13.9 5.7 27.3 5.6 10 0 13-.4 17.8-2.3 10.4-4 16.7-13.3 13.3-19.8-4.4-8.5-17-13.6-57.5-23.3-21.6-5.2-22.4-5.5-23.9-8.4a17.94 17.94 0 0 1-1.3-7.8c.3-6.4-1.4-11-5.4-14.5l-3.3-3 4.2-14.2h6.2c3.5 0 6.6-.5 6.9-1 .5-.7-1.9-1-7.2-.8l-7.8.3-3.4 7.3c-4.6 9.5-6 9.5-10.8-.3l-3.7-7.5h-7.3c-4.2 0-7.3.4-7.3 1s2.8 1 6.3 1h6.4l2.2 7.2 2.1 7.3L104 75c-4.3 3.1-6.8 9.2-6.2 15.2.8 7.9-1.2 10.5-9.9 12.6l-25.8 6.4c-35.1 8.6-48.6 15.6-48.6 25.2 0 6.9 6.5 13.4 16.6 16.6 7.3 2.4 28.9 1.6 36.5-1.3z" fill="#ffc038"/><path d="M105.5 175c-13-1.9-14-2.6-14-10.3 0-2.5.3-3.2 1.5-2.7 6.9 2.6 32.8 3.3 40.3 1 2.6-.7 2.8.8 1.2 6.8-1 3.5-1.3 3.6-7.4 4.7-5.9 1-16.1 1.3-21.6.5zm-2.5-31.5c-3.8-.5-7.4-1.4-7.9-1.9s-.3-2.4.6-4.7c1.5-3.6 1.7-3.7 5.4-3.3a119.54 119.54 0 0 0 20.9 0l6.9-.5 1.8 4.6 1.7 4.7-3.1.6c-6 1.2-19.4 1.5-26.3.5z" fill="#fff"/><g fill="#ffc038"><path d="M110.3.7l1.23-.7 1.4.7h-2.64zM0 193.7l7.25 4.2V60L0 193.7zM111.53 0l85.45 48.13m-38.54 127.32h66.7M224.4 64l.73.77L224 194.1l.4-130.1zm0 0l.73.43v.34l-.73-.77z"/><path d="M225.13 64.42v91.5l-3.13-3.87 3.13-87.64zm0 91.5l-.57 37.87-.56.3V155l1.13.92z"/><path d="M224.3 155.55l.4-.44.42.74v.2"/></g></svg>