<svg xmlns="http://www.w3.org/2000/svg" viewBox="0 0 335.8 47.4"><path d="M.3 44.8C0 44-.1 34 0 22.5l.3-21L12.8.9l3 4.7c1.6 2.6 3.2 5.6 3.6 6.6 1 3.4 3.3 1.8 7-4.7L30 .9l13.3.6.3 21.4c.2 16.5-.1 21.6-1 22.3-1.5.9-8.9 1.1-11.2.2-1.3-.5-1.6-2.6-1.6-12.3V21.5l-2.6 4.3c-2.1 3.6-3 4.2-5.8 4.2-2.7 0-3.6-.6-5.2-3.5-1-1.9-2.2-3.5-2.6-3.5s-.9 5.1-1 11.3l-.3 11.2-5.8.3c-4 .2-5.9-.1-6.2-1zm58.9-.2c-6-2.7-6.4-4.1-6.4-24.8V1h13v15.4c0 16.9.5 18.6 5.8 18.6 5 0 5.1-.5 5.4-17.5l.3-16h13V39L87 42.2c-3.2 3.3-3.3 3.3-14 3.6-7.5.1-11.6-.2-13.8-1.2zm40.1.1c-.4-.8-.5-3.4-.3-5.8l.3-4.4 9.8-.3c8.8-.2 9.7-.5 9.7-2.2 0-1.5-1-2-4.7-2.5-14-1.9-15.3-3.1-15.3-14.2 0-7.7.2-8.6 2.5-10.7 3.2-3 6.4-3.6 18.6-3.6 9.6 0 9.9.1 10.5 2.4.3 1.3.4 3.7.2 5.2-.3 2.9-.4 2.9-7.3 3.2-8.9.3-11.5.9-11.5 2.7 0 1.9.8 2.3 8.4 3.5 10.6 1.7 12.6 3.8 12.6 13.5 0 11.6-2.9 13.7-20.2 14.3-10.8.4-12.9.2-13.3-1.1zm40.7.4c-.9-.5-1.2-2.5-1-5.7l.3-4.9 8.5-.6V13.1l-4.2-.3-4.3-.3v-11h30v11l-4.2.3-4.3.3v20.8l8.5.6.3 4.9c.2 3.2-.1 5.2-1 5.7-.7.5-7.1.9-14.3.9-7.1 0-13.6-.4-14.3-.9zm48.2 0c-5.4-.9-9.2-3.5-10.1-6.9-1.3-4.6-.9-28.4.5-31 2.7-4.8 5.7-5.7 18.6-5.7h12.1v11l-18 1v20l18 1 .3 4.9c.2 3.2-.1 5.2-1 5.7-1.5 1-14.4 1-20.4 0zm29.7-.5c-.8-.9-1.1-7.7-.9-22.2l.3-20.9 11-.3c13.4-.4 17 .2 20.1 3.3 2.8 2.8 3.3 9.9.9 13.1-1.8 2.4-1.9 3.4-.1 3.4.8 0 2.4 1.2 3.5 2.6 1.7 2.1 2.1 4.1 2.1 9.4 0 11.4-2.8 12.9-24.1 13-8.7 0-11.9-.3-12.8-1.4zm22.7-12.8c-.3-3.2-.5-3.3-5-3.6l-4.8-.3V35h10.1l-.3-3.2zM237.8 15c0-2.8-.3-3-3.5-3s-3.5.2-3.5 3 .3 3 3.5 3 3.5-.2 3.5-3zm25.7 30.3c-.4-.3-.7-10.5-.7-22.5V1h32l.6 2.4c.3 1.3.4 3.7.2 5.2l-.3 2.9-9.5.5c-9.5.5-9.5.5-9.8 3.3l-.3 2.7h14.1v9.9l-6.7.3c-6.6.3-6.8.4-7.1 3.1l-.3 2.7h8.8c10.1 0 11.3.7 11.3 6 0 2-.5 4.1-1.2 4.8-1.3 1.3-29.9 1.8-31.1.5zm41 .1c-.4-.4-.7-10.6-.7-22.6V1h32v11h-19v6h14v10h-14v5.9l18.5.6v11l-15.1.3c-8.2.1-15.3-.1-15.7-.4z" fill="#020100"/><path d="M.5 45.3c-.3-.5 2.3-.8 5.8-.8s6.1.3 5.8.8c-.2.4-2.8.7-5.8.7s-5.6-.3-5.8-.7zm104.6 0c3.2-.2 8.1-.2 11 0s.3.3-5.8.3c-6 0-8.4-.1-5.2-.3zm41.9 0c3.7-.2 10-.2 14 0 4 .1 1 .3-6.7.3s-11-.1-7.3-.3zm48.6 0c2.3-.2 6.1-.2 8.5 0 2.3.2.4.4-4.3.4s-6.6-.2-4.2-.4zm29.5 0c3.7-.2 9.6-.2 13 0s.4.3-6.8.3c-7.1 0-9.9-.1-6.2-.3zm38.4 0c-.3-.5 4.3-.7 10.1-.5 19 .4 21.1.8 5.5 1-8.3.1-15.4-.1-15.6-.5zm41 0c-.3-.5 4.3-.7 10.1-.5 19 .4 21.1.8 5.5 1-8.3.1-15.4-.1-15.6-.5zM30.2 33.5c0-6.6.1-9.2.3-5.7.2 3.4.2 8.8 0 12-.2 3.1-.3.3-.3-6.3zM43 23.8L42.8 2h-6.5c-3.6 0-6.5.4-6.5.8 0 .5-.7 1.7-1.5 2.8-1.4 1.7-1.4 1.5 0-1.3C29.8 1.1 30 1 36.4 1c4.3 0 6.6.4 7 1.3.2.7.3 10.7.1 22.2l-.2 21-.3-21.7zm96.2 15.7l.1-5 8-.2-3.7.4c-3.6.4-3.7.5-4.1 5.1l-.4 4.7.1-5zm29.8.8l-.2-5.2-4.2-.4-4.3-.4 4.3-.1c4.9-.2 5.5.6 4.9 6.9-.4 4.4-.4 4.4-.5-.8zm40 0l-.2-5.2-8.2-.4-8.3-.3 8.3-.2c9.3-.2 9.6 0 8.9 6.9-.3 4.4-.4 4.4-.5-.8zm8.3-17.5V1.5h12.8l12.7-.1-12.5.3-12.5.4-.6 41.9.1-21.2zM90 19.3L89.8 2H77.9l-.4 15.3-.3 15.2.1-15.5V1.5l6.3-.3c4.5-.2 6.4.1 6.7 1 .3.8.4 8.8.2 17.8l-.3 16.5-.2-17.2zm19.2 15c7.9-.3 9.6-.7 10-2.1.4-1.3.4-1.2.3.3-.2 1.8-1 2-10 2.1h-9.7l9.4-.3zm170.9 0c2.6-.2 6.8-.2 9.5 0 2.6.2.4.3-4.8.3s-7.4-.1-4.7-.3zm41 0c2.6-.2 6.8-.2 9.5 0 2.6.2.4.3-4.8.3s-7.4-.1-4.7-.3zM177.2 23.5c0-6 .1-8.4.3-5.2s.2 8.1 0 11-.3.3-.3-5.8zM17.3 10c-1.5-2.9-2.2-5-1.7-4.6.5.3 1.7 2.3 2.7 4.6 2.2 4.8 3.9 5.1 6 1 .9-1.6 1.8-3 2.1-3s-.3 1.5-1.3 3.2c-2.9 5-4.8 4.7-7.8-1.2zm121.9 1.6c-.3-.7-.4-3.3-.2-5.7l.3-4.4h30v11l-8 .2 3.8-.4 3.7-.4V2h-29v9.9l4.3.4 4.2.4-4.3.1c-2.8.1-4.4-.3-4.8-1.2zm61.9.7l7.7-.4V2.1l-10-.4-10-.3H199l10.3.1v11l-8 .1h-8l7.8-.3zm-188-9.4c-.6-.6-3.6-.9-7.1-.7-3.3.1-5.8 0-5.5-.4.9-1.5 12-.9 13.3.7 1.4 1.7.9 2-.7.4zm39.7-1.1c0-.5 3-.7 6.8-.7 6.9.2 6.2.6-2 1.1-2.7.2-4.8 0-4.8-.4zm210 0c0-.5 7.3-.7 16.3-.6 16.3.2 14.4.5-5.6 1-5.9.2-10.7 0-10.7-.4zm-149.7-.5c3.1-.2 8.3-.2 11.5 0 3.1.2.5.3-5.8.3s-8.9-.1-5.7-.3zm198.5 0a226.95 226.95 0 0 1 16.5 0c4.5.1.8.3-8.3.3s-12.8-.2-8.2-.3z"/></svg>